{"asset":{"version":"2.0","generator":"Unreal Engine 4.26.0 glTF Exporter 1.0.6"},"scene":0,"accessors":[{"bufferView":0,"count":26841,"type":"SCALAR","componentType":5123},{"bufferView":1,"count":15506,"type":"VEC3","componentType":5126,"min":[-502.557007,11.2480087,-161.864487],"max":[640.058105,345.992279,161.864441]},{"bufferView":2,"count":15506,"type":"VEC3","componentType":5126},{"bufferView":3,"count":15506,"type":"VEC4","componentType":5126},{"bufferView":4,"count":15506,"type":"VEC2","componentType":5126},{"bufferView":5,"count":15506,"type":"VEC2","componentType":5126},{"bufferView":6,"count":342,"type":"SCALAR","componentType":5121},{"bufferView":7,"count":191,"type":"VEC3","componentType":5126,"min":[-493.640533,89.0186234,-136.818085],"max":[626.572083,330.965027,133.356781]},{"bufferView":8,"count":191,"type":"VEC3","componentType":5126},{"bufferView":9,"count":191,"type":"VEC4","componentType":5126},{"bufferView":10,"count":191,"type":"VEC2","componentType":5126},{"bufferView":11,"count":191,"type":"VEC2","componentType":5126}],"buffers":[{"uri":"data:application/octet-stream;base64,","byteLength":933060}],"bufferViews":[{"buffer":0,"byteLength":53682,"target":34963},{"buffer":0,"byteLength":186072,"byteOffset":53684,"target":34962},{"buffer":0,"byteLength":186072,"byteOffset":239756,"target":34962},{"buffer":0,"byteLength":248096,"byteOffset":425828,"target":34962},{"buffer":0,"byteLength":124048,"byteOffset":673924,"target":34962},{"buffer":0,"byteLength":124048,"byteOffset":797972,"target":34962},{"buffer":0,"byteLength":342,"byteOffset":922020,"target":34963},{"buffer":0,"byteLength":2292,"byteOffset":922364,"target":34962},{"buffer":0,"byteLength":2292,"byteOffset":924656,"target":34962},{"buffer":0,"byteLength":3056,"byteOffset":926948,"target":34962},{"buffer":0,"byteLength":1528,"byteOffset":930004,"target":34962},{"buffer":0,"byteLength":1528,"byteOffset":931532,"target":34962}],"images":[{"uri":"data:application/octet-stream;base64,"},{"uri":"data:application/octet-stream;base64,"},{"uri":"data:application/octet-stream;base64,"}],"materials":[{"name":"Mat_PolygonTown_01_A","pbrMetallicRoughness":{"baseColorTexture":{"index":0},"metallicRoughnessTexture":{"index":1}},"normalTexture":{"index":2}},{"name":"Mat_Vehicle_Glass","pbrMetallicRoughness":{"baseColorFactor":[0.0967999995,0.159999996,0.156881154,0.200000003],"metallicFactor":0.400000006,"roughnessFactor":0.200000003},"alphaMode":"BLEND"}],"meshes":[{"name":"bus","primitives":[{"attributes":{"POSITION":1,"NORMAL":2,"TANGENT":3,"TEXCOORD_0":4,"TEXCOORD_1":5},"indices":0,"material":0},{"attributes":{"POSITION":7,"NORMAL":8,"TANGENT":9,"TEXCOORD_0":10,"TEXCOORD_1":11},"indices":6,"material":1}]}],"nodes":[{"mesh":0}],"samplers":[{"name":"Mat_PolygonTown_01_A_MetallicRoughness","minFilter":9987,"magFilter":9729},{"name":"T_PolygonTown_01_A","minFilter":9987,"magFilter":9729},{"name":"T_PolygonTown_Normal_A","minFilter":9987,"magFilter":9729}],"scenes":[{"nodes":[0]}],"textures":[{"name":"T_PolygonTown_01_A","sampler":1,"source":1},{"name":"Mat_PolygonTown_01_A_MetallicRoughness","sampler":0,"source":0},{"name":"T_PolygonTown_Normal_A","sampler":2,"source":2}]}